<?xml version="1.0" encoding="utf-8"?>
<!-- Generator: Adobe Illustrator 16.0.0, SVG Export Plug-In . SVG Version: 6.00 Build 0)  -->
<!DOCTYPE svg PUBLIC "-//W3C//DTD SVG 1.1//EN" "http://www.w3.org/Graphics/SVG/1.1/DTD/svg11.dtd">
<svg version="1.1" id="Layer_1" xmlns="http://www.w3.org/2000/svg" xmlns:xlink="http://www.w3.org/1999/xlink" x="0px" y="0px"
	 width="150px" height="100px" viewBox="0 0 150 100" enable-background="new 0 0 150 100" xml:space="preserve">
<path fill="none" stroke="#000000" stroke-width="5" stroke-miterlimit="10" d="M6.019,51.861
	c2.875,9.137,8.432,17.629,16.16,24.389c4.594,4.019,9.645,7.519,15.288,10.302c6.918,3.413,13.846,5.657,21.506,7.257
	c7.796,1.629,15.868,2.274,23.924,2.32c10.686,1.169,21.942,1.779,32.046-0.976c5.94-1.622,10.412-5.514,14.336-9.514
	c3.62-3.688,6.388-7.899,8.932-12.219c5.083-8.636,8.143-18.302,7.139-28.218c-0.548-5.382-3.525-10.535-7.195-14.861
	c-3.522-4.153-8.529-7.196-13.389-10.011C114.354,14.3,102.908,9.11,90.975,6.062c-15.146-3.869-31.589-4.186-46.751-1.34
	C28.45,7.682,12.911,14.7,6.568,28.325C3.165,35.637,3.617,44.222,6.019,51.861z"/>
</svg>
